<?xml version="1.0" standalone="no"?>
<!DOCTYPE svg PUBLIC "-//W3C//DTD SVG 20010904//EN"
 "http://www.w3.org/TR/2001/REC-SVG-20010904/DTD/svg10.dtd">
<svg version="1.0" xmlns="http://www.w3.org/2000/svg"
 width="1075.000000pt" height="1075.000000pt" viewBox="0 0 1075.000000 1075.000000"
 preserveAspectRatio="xMidYMid meet">

<g transform="translate(0.000000,1075.000000) scale(0.100000,-0.100000)"
fill="#000000" stroke="none">
<path d="M5090 10740 c-973 -56 -1875 -354 -2680 -885 -314 -208 -542 -396
-835 -689 -233 -233 -374 -396 -543 -629 -936 -1285 -1253 -2910 -871 -4457
273 -1106 896 -2102 1774 -2835 1150 -960 2631 -1389 4145 -1199 1288 161
2521 830 3377 1830 973 1137 1427 2621 1257 4114 -236 2078 -1670 3836 -3664
4490 -392 129 -817 215 -1235 249 -176 15 -558 21 -725 11z m2015 -1951 c234
-20 435 -74 643 -174 596 -286 989 -851 1052 -1510 14 -154 14 -3309 -1 -3465
-75 -803 -659 -1470 -1440 -1644 -213 -47 -228 -47 -2059 -43 -1903 4 -1755
-1 -2000 66 -421 117 -795 389 -1045 762 -126 186 -232 445 -275 665 -38 199
-41 369 -37 2059 4 1782 1 1673 67 1920 47 179 113 329 217 497 302 488 833
816 1404 867 142 12 3329 13 3474 0z"/>
<path d="M3683 8200 c-532 -57 -977 -441 -1108 -958 -45 -175 -46 -259 -42
-1962 4 -1772 0 -1661 67 -1862 127 -379 435 -686 812 -812 193 -65 53 -60
1903 -64 1207 -2 1706 0 1773 8 292 36 543 159 752 369 156 157 249 309 314
511 64 200 61 94 61 1950 0 1600 -1 1700 -18 1780 -56 263 -172 482 -345 658
-188 190 -393 303 -660 364 l-97 22 -1670 2 c-918 1 -1703 -2 -1742 -6z m3701
-639 c84 -41 146 -104 188 -189 31 -62 33 -73 33 -167 -1 -90 -4 -106 -30
-160 -145 -299 -566 -305 -711 -10 -27 56 -29 68 -29 175 0 107 2 119 29 172
50 99 142 176 245 205 26 7 81 11 128 10 68 -3 92 -9 147 -36z m-1770 -336
c419 -55 779 -235 1086 -544 145 -147 218 -241 315 -410 146 -257 222 -531
232 -841 16 -504 -162 -971 -511 -1337 -274 -287 -616 -476 -1002 -553 -137
-28 -432 -38 -582 -21 -741 86 -1370 631 -1567 1356 -14 51 -33 131 -41 176
-22 119 -30 406 -14 537 99 842 764 1522 1600 1637 131 18 347 18 484 0z"/>
<path d="M5165 6584 c-518 -92 -926 -507 -1010 -1027 -69 -424 109 -880 448
-1152 149 -119 292 -191 486 -243 86 -23 115 -25 281 -26 168 0 195 2 290 26
286 72 509 218 690 450 250 321 327 760 200 1140 -63 187 -156 336 -304 484
-193 193 -404 303 -670 349 -109 18 -303 18 -411 -1z"/>
</g>
</svg>
