<?xml version="1.0" standalone="no"?>
<!DOCTYPE svg PUBLIC "-//W3C//DTD SVG 20010904//EN"
 "http://www.w3.org/TR/2001/REC-SVG-20010904/DTD/svg10.dtd">
<svg version="1.0" xmlns="http://www.w3.org/2000/svg"
 width="1174.000000pt" height="1203.000000pt" viewBox="0 0 1174.000000 1203.000000"
 preserveAspectRatio="xMidYMid meet">

<g transform="translate(0.000000,1203.000000) scale(0.100000,-0.100000)"
fill="#000000" stroke="none">
<path d="M5440 11209 c-916 -72 -1782 -370 -2545 -877 -326 -216 -565 -411
-840 -687 -818 -817 -1346 -1869 -1515 -3019 -70 -480 -70 -1062 0 -1549 82
-566 240 -1073 495 -1592 339 -690 794 -1271 1377 -1757 788 -660 1749 -1079
2763 -1207 482 -60 1035 -54 1505 19 978 151 1862 553 2640 1200 161 133 516
489 650 649 678 817 1092 1764 1219 2791 279 2254 -868 4421 -2889 5459 -615
316 -1324 514 -2039 570 -155 13 -665 12 -821 0z m1963 -2186 c23 -486 304
-981 728 -1285 157 -112 318 -181 526 -224 108 -22 146 -25 238 -21 61 2 118
8 128 12 16 7 17 -25 17 -590 l0 -598 -222 6 c-235 5 -343 20 -535 72 -280 75
-586 234 -820 426 l-63 51 0 -1274 c0 -799 -4 -1314 -10 -1383 -62 -655 -425
-1251 -985 -1618 -112 -73 -361 -195 -481 -236 -797 -269 -1663 -79 -2267 499
-220 210 -410 502 -520 800 -288 778 -109 1651 463 2263 218 233 561 455 866
560 336 116 703 153 992 101 l32 -6 0 -600 0 -600 -22 6 c-140 42 -376 45
-519 8 -352 -93 -622 -356 -725 -707 -21 -71 -27 -119 -31 -230 -6 -161 9
-264 58 -399 143 -396 570 -669 1004 -643 265 17 495 125 681 320 136 143 217
295 255 482 18 86 19 190 19 2508 l0 2417 594 0 593 0 6 -117z"/>
</g>
</svg>
