<?xml version="1.0" standalone="no"?>
<!DOCTYPE svg PUBLIC "-//W3C//DTD SVG 20010904//EN"
 "http://www.w3.org/TR/2001/REC-SVG-20010904/DTD/svg10.dtd">
<svg version="1.0" xmlns="http://www.w3.org/2000/svg"
 width="1075.000000pt" height="1075.000000pt" viewBox="0 0 1075.000000 1075.000000"
 preserveAspectRatio="xMidYMid meet">

<g transform="translate(0.000000,1075.000000) scale(0.100000,-0.100000)"
fill="#000000" stroke="none">
<path d="M5090 10740 c-973 -56 -1875 -354 -2680 -885 -314 -208 -542 -396
-835 -689 -233 -233 -374 -396 -543 -629 -936 -1285 -1253 -2910 -871 -4457
273 -1106 896 -2102 1774 -2835 1150 -960 2631 -1389 4145 -1199 1288 161
2521 830 3377 1830 973 1137 1427 2621 1257 4114 -236 2078 -1670 3836 -3664
4490 -392 129 -817 215 -1235 249 -176 15 -558 21 -725 11z m1110 -3030 c569
-20 1145 -56 1390 -86 616 -76 870 -262 985 -723 146 -585 155 -2295 14 -2979
-96 -471 -324 -674 -853 -761 -220 -37 -731 -78 -1261 -103 -361 -17 -1829
-17 -2190 0 -502 23 -1002 63 -1230 98 -436 68 -661 203 -795 479 -91 189
-124 384 -162 950 -17 255 -17 1336 0 1585 34 509 63 706 128 874 126 326 362
489 814 560 264 42 823 82 1480 105 325 12 1358 12 1680 1z"/>
<path d="M4710 5376 c0 -548 3 -996 7 -996 8 0 1694 980 1710 994 10 9 -194
130 -835 498 -466 268 -855 490 -865 493 -16 7 -17 -45 -17 -989z"/>
</g>
</svg>
